<?xml version="1.0" encoding="UTF-8" standalone="no" ?>
<!DOCTYPE svg PUBLIC "-//W3C//DTD SVG 1.1//EN" "http://www.w3.org/Graphics/SVG/1.1/DTD/svg11.dtd">
<svg xmlns="http://www.w3.org/2000/svg" xmlns:xlink="http://www.w3.org/1999/xlink" version="1.1" width="1080" height="1080" viewBox="0 0 1080 1080" xml:space="preserve">
<desc>Created with Fabric.js 5.2.4</desc>
<defs>
</defs>
<g transform="matrix(1 0 0 1 540 540)" id="0291654b-c21c-41c2-a4be-47796cf9ef50"  >
<rect style="stroke: none; stroke-width: 1; stroke-dasharray: none; stroke-linecap: butt; stroke-dashoffset: 0; stroke-linejoin: miter; stroke-miterlimit: 4; fill: rgb(255,255,255); fill-rule: nonzero; opacity: 1; visibility: hidden;" vector-effect="non-scaling-stroke"  x="-540" y="-540" rx="0" ry="0" width="246.62px" height="246.62px" />
</g>
<g transform="matrix(1 0 0 1 540 540)" id="63e6479b-8bc4-47ad-baba-ba920db9b5d7"  >
</g>
<g transform="matrix(1 0 0 1 540 540)"  >
<g style="" vector-effect="non-scaling-stroke"   >
		<g transform="matrix(0.48 0 0 0.48 -20.55 16.44)"  >
<path style="stroke: none; stroke-width: 1; stroke-dasharray: none; stroke-linecap: butt; stroke-dashoffset: 0; stroke-linejoin: miter; stroke-miterlimit: 4; fill: rgb(0,0,0); fill-rule: nonzero; opacity: 1;" vector-effect="non-scaling-stroke"  transform=" translate(-213.33, -290.13)" d="M 187.733 315.733 C 187.733 320.443 191.556 324.266 196.266 324.266 L 230.4 324.266 C 235.11 324.266 238.933 320.44300000000004 238.933 315.733 L 238.933 264.533 C 238.933 259.82300000000004 235.10999999999999 256 230.4 256 L 196.267 256 C 191.557 256 187.734 259.823 187.734 264.533 L 187.734 315.733 z M 204.8 273.067 L 221.86700000000002 273.067 L 221.86700000000002 307.2 L 204.8 307.2 L 204.8 273.067 z" stroke-linecap="round" />
</g>
		<g transform="matrix(0.48 0 0 0.48 -20.55 -32.88)"  >
<path style="stroke: none; stroke-width: 1; stroke-dasharray: none; stroke-linecap: butt; stroke-dashoffset: 0; stroke-linejoin: miter; stroke-miterlimit: 4; fill: rgb(0,0,0); fill-rule: nonzero; opacity: 1;" vector-effect="non-scaling-stroke"  transform=" translate(-213.33, -187.73)" d="M 196.267 221.867 L 230.4 221.867 C 235.11 221.867 238.933 218.04399999999998 238.933 213.334 L 238.933 162.13400000000001 C 238.933 157.424 235.10999999999999 153.60100000000003 230.4 153.60100000000003 L 196.267 153.60100000000003 C 191.557 153.60100000000003 187.734 157.42400000000004 187.734 162.13400000000001 L 187.734 213.334 C 187.733 218.044 191.556 221.867 196.267 221.867 z M 204.8 170.667 L 221.86700000000002 170.667 L 221.86700000000002 204.8 L 204.8 204.8 L 204.8 170.667 z" stroke-linecap="round" />
</g>
		<g transform="matrix(0.48 0 0 0.48 0 -84.26)"  >
<path style="stroke: none; stroke-width: 1; stroke-dasharray: none; stroke-linecap: butt; stroke-dashoffset: 0; stroke-linejoin: miter; stroke-miterlimit: 4; fill: rgb(0,0,0); fill-rule: nonzero; opacity: 1;" vector-effect="non-scaling-stroke"  transform=" translate(-256, -81.07)" d="M 132.395 160.913 L 256 86.75 L 379.605 160.913 C 380.97900000000004 161.741 382.498 162.133 383.99100000000004 162.133 C 386.89200000000005 162.133 389.71700000000004 160.657 391.31300000000005 157.994 C 393.74500000000006 153.949 392.43100000000004 148.71 388.39500000000004 146.286 L 264.533 71.97 L 264.533 17.067 L 307.2 17.067 L 307.2 34.134 L 281.59999999999997 34.134 C 276.89 34.134 273.06699999999995 37.957 273.06699999999995 42.667 C 273.06699999999995 47.377 276.88999999999993 51.2 281.59999999999997 51.2 L 315.73299999999995 51.2 C 320.4429999999999 51.2 324.26599999999996 47.377 324.26599999999996 42.667 L 324.26599999999996 8.533 C 324.26599999999996 3.8229999999999995 320.443 0 315.73299999999995 0 L 256 0 C 251.29 0 247.467 3.823 247.467 8.533 L 247.467 71.97 L 123.60600000000001 146.28699999999998 C 119.57000000000001 148.70999999999998 118.25600000000001 153.95 120.688 157.99499999999998 C 123.102 162.031 128.358 163.345 132.395 160.913 z" stroke-linecap="round" />
</g>
		<g transform="matrix(0.48 0 0 0.48 -86.32 16.44)"  >
<path style="stroke: none; stroke-width: 1; stroke-dasharray: none; stroke-linecap: butt; stroke-dashoffset: 0; stroke-linejoin: miter; stroke-miterlimit: 4; fill: rgb(0,0,0); fill-rule: nonzero; opacity: 1;" vector-effect="non-scaling-stroke"  transform=" translate(-76.8, -290.13)" d="M 93.867 324.267 C 98.577 324.267 102.4 320.444 102.4 315.734 L 102.4 264.534 C 102.4 259.824 98.57700000000001 256.001 93.867 256.001 L 59.733 256.001 C 55.022999999999996 256.001 51.199999999999996 259.82399999999996 51.199999999999996 264.534 L 51.199999999999996 281.6 C 51.199999999999996 286.31 55.022999999999996 290.13300000000004 59.733 290.13300000000004 C 64.443 290.13300000000004 68.26599999999999 286.31000000000006 68.26599999999999 281.6 L 68.26599999999999 273.067 L 85.333 273.067 L 85.333 315.73400000000004 C 85.333 320.444 89.156 324.267 93.867 324.267 z" stroke-linecap="round" />
</g>
		<g transform="matrix(0.48 0 0 0.48 -53.43 26.72)"  >
<path style="stroke: none; stroke-width: 1; stroke-dasharray: none; stroke-linecap: butt; stroke-dashoffset: 0; stroke-linejoin: miter; stroke-miterlimit: 4; fill: rgb(0,0,0); fill-rule: nonzero; opacity: 1;" vector-effect="non-scaling-stroke"  transform=" translate(-145.07, -311.47)" d="M 153.6 435.2 L 153.6 187.733 C 153.6 183.023 149.777 179.20000000000002 145.067 179.20000000000002 C 140.357 179.20000000000002 136.53400000000002 183.02300000000002 136.53400000000002 187.733 L 136.53400000000002 435.2 C 136.53400000000002 439.90999999999997 140.35700000000003 443.733 145.067 443.733 C 149.777 443.733 153.6 439.91 153.6 435.2 z" stroke-linecap="round" />
</g>
		<g transform="matrix(0.48 0 0 0.48 0 78.1)"  >
<path style="stroke: none; stroke-width: 1; stroke-dasharray: none; stroke-linecap: butt; stroke-dashoffset: 0; stroke-linejoin: miter; stroke-miterlimit: 4; fill: rgb(0,0,0); fill-rule: nonzero; opacity: 1;" vector-effect="non-scaling-stroke"  transform=" translate(-256, -418.13)" d="M 110.933 477.867 L 401.066 477.867 C 405.77599999999995 477.867 409.599 474.04400000000004 409.599 469.334 C 409.599 464.62399999999997 405.776 460.801 401.066 460.801 L 324.26599999999996 460.801 L 324.26599999999996 375.46799999999996 L 332.799 375.46799999999996 C 337.50899999999996 375.46799999999996 341.332 371.645 341.332 366.93499999999995 C 341.332 362.2249999999999 337.509 358.40199999999993 332.799 358.40199999999993 L 179.2 358.40199999999993 C 174.48999999999998 358.40199999999993 170.667 362.2249999999999 170.667 366.93499999999995 C 170.667 371.645 174.49 375.46799999999996 179.2 375.46799999999996 L 187.73299999999998 375.46799999999996 L 187.73299999999998 460.8 L 110.93299999999998 460.8 C 106.22299999999998 460.8 102.39999999999998 464.623 102.39999999999998 469.333 C 102.39999999999998 474.04300000000006 106.223 477.867 110.933 477.867 z M 264.533 426.667 C 269.243 426.667 273.06600000000003 422.844 273.06600000000003 418.13399999999996 C 273.06600000000003 413.4239999999999 269.24300000000005 409.60099999999994 264.533 409.60099999999994 L 264.533 375.46799999999996 L 307.2 375.46799999999996 L 307.2 460.8 L 264.533 460.8 L 264.533 426.667 z M 204.8 375.467 L 247.467 375.467 L 247.467 409.6 C 242.757 409.6 238.93400000000003 413.423 238.93400000000003 418.13300000000004 C 238.93400000000003 422.8430000000001 242.75700000000003 426.66600000000005 247.467 426.66600000000005 L 247.467 460.8 L 204.8 460.8 L 204.8 375.467 z" stroke-linecap="round" />
</g>
		<g transform="matrix(0.48 0 0 0.48 86.32 69.88)"  >
<path style="stroke: none; stroke-width: 1; stroke-dasharray: none; stroke-linecap: butt; stroke-dashoffset: 0; stroke-linejoin: miter; stroke-miterlimit: 4; fill: rgb(0,0,0); fill-rule: nonzero; opacity: 1;" vector-effect="non-scaling-stroke"  transform=" translate(-435.2, -401.07)" d="M 452.267 366.933 L 418.134 366.933 C 413.42400000000004 366.933 409.601 370.756 409.601 375.466 L 409.601 426.666 C 409.601 431.376 413.424 435.199 418.134 435.199 L 452.267 435.199 C 456.977 435.199 460.8 431.37600000000003 460.8 426.666 L 460.8 375.466 C 460.8 370.756 456.977 366.933 452.267 366.933 z M 443.733 418.133 L 426.666 418.133 L 426.666 384 L 443.733 384 L 443.733 418.133 z" stroke-linecap="round" />
</g>
		<g transform="matrix(0.48 0 0 0.48 86.32 20.55)"  >
<path style="stroke: none; stroke-width: 1; stroke-dasharray: none; stroke-linecap: butt; stroke-dashoffset: 0; stroke-linejoin: miter; stroke-miterlimit: 4; fill: rgb(0,0,0); fill-rule: nonzero; opacity: 1;" vector-effect="non-scaling-stroke"  transform=" translate(-435.2, -298.67)" d="M 452.267 264.533 L 418.134 264.533 C 413.42400000000004 264.533 409.601 268.356 409.601 273.06600000000003 L 409.601 324.266 C 409.601 328.976 413.424 332.79900000000004 418.134 332.79900000000004 L 452.267 332.79900000000004 C 456.977 332.79900000000004 460.8 328.97600000000006 460.8 324.266 L 460.8 273.06600000000003 C 460.8 268.356 456.977 264.533 452.267 264.533 z M 443.733 315.733 L 426.666 315.733 L 426.666 281.6 L 443.733 281.6 L 443.733 315.733 z" stroke-linecap="round" />
</g>
		<g transform="matrix(0.48 0 0 0.48 0 119.2)"  >
<path style="stroke: none; stroke-width: 1; stroke-dasharray: none; stroke-linecap: butt; stroke-dashoffset: 0; stroke-linejoin: miter; stroke-miterlimit: 4; fill: rgb(0,0,0); fill-rule: nonzero; opacity: 1;" vector-effect="non-scaling-stroke"  transform=" translate(-256, -503.47)" d="M 435.2 494.933 L 76.8 494.933 C 72.09 494.933 68.267 498.756 68.267 503.466 C 68.267 508.17600000000004 72.09 512 76.8 512 L 435.2 512 C 439.90999999999997 512 443.733 508.177 443.733 503.467 C 443.733 498.75699999999995 439.91 494.933 435.2 494.933 z" stroke-linecap="round" />
</g>
		<g transform="matrix(0.48 0 0 0.48 94.54 45.21)"  >
<path style="stroke: none; stroke-width: 1; stroke-dasharray: none; stroke-linecap: butt; stroke-dashoffset: 0; stroke-linejoin: miter; stroke-miterlimit: 4; fill: rgb(0,0,0); fill-rule: nonzero; opacity: 1;" vector-effect="non-scaling-stroke"  transform=" translate(-452.27, -349.87)" d="M 503.467 187.733 C 498.757 187.733 494.93399999999997 191.556 494.93399999999997 196.266 L 494.93399999999997 204.79899999999998 L 401.06699999999995 204.79899999999998 C 396.35699999999997 204.79899999999998 392.53399999999993 208.62199999999999 392.53399999999993 213.33199999999997 C 392.53399999999993 218.04199999999997 396.3569999999999 221.86499999999995 401.06699999999995 221.86499999999995 L 494.93399999999997 221.86499999999995 L 494.93399999999997 503.465 C 494.93399999999997 508.17499999999995 498.75699999999995 511.998 503.467 511.998 C 508.177 511.998 512 508.175 512 503.465 L 512 196.265 C 512 191.556 508.177 187.733 503.467 187.733 z" stroke-linecap="round" />
</g>
		<g transform="matrix(0.48 0 0 0.48 20.55 16.44)"  >
<path style="stroke: none; stroke-width: 1; stroke-dasharray: none; stroke-linecap: butt; stroke-dashoffset: 0; stroke-linejoin: miter; stroke-miterlimit: 4; fill: rgb(0,0,0); fill-rule: nonzero; opacity: 1;" vector-effect="non-scaling-stroke"  transform=" translate(-298.67, -290.13)" d="M 273.067 315.733 C 273.067 320.443 276.89 324.266 281.6 324.266 L 315.733 324.266 C 320.443 324.266 324.266 320.44300000000004 324.266 315.733 L 324.266 264.533 C 324.266 259.82300000000004 320.44300000000004 256 315.733 256 L 281.6 256 C 276.89000000000004 256 273.067 259.823 273.067 264.533 L 273.067 315.733 z M 290.133 273.067 L 307.2 273.067 L 307.2 307.2 L 290.133 307.2 L 290.133 273.067 z" stroke-linecap="round" />
</g>
		<g transform="matrix(0.48 0 0 0.48 -102.76 73.99)"  >
<path style="stroke: none; stroke-width: 1; stroke-dasharray: none; stroke-linecap: butt; stroke-dashoffset: 0; stroke-linejoin: miter; stroke-miterlimit: 4; fill: rgb(0,0,0); fill-rule: nonzero; opacity: 1;" vector-effect="non-scaling-stroke"  transform=" translate(-42.67, -409.6)" d="M 85.333 418.133 C 85.333 417.024 84.847 307.2 42.666 307.2 C 0.486 307.2 0 417.024 0 418.133 C 0 438.741 14.686 455.96999999999997 34.133 459.938 L 34.133 503.467 C 34.133 508.17699999999996 37.956 512 42.666000000000004 512 C 47.376000000000005 512 51.199000000000005 508.177 51.199000000000005 503.467 L 51.199000000000005 459.938 C 70.647 455.97 85.333 438.741 85.333 418.133 z M 42.667 443.733 C 28.553 443.733 17.067 432.247 17.067 418.133 C 17.067 375.62 28.485 324.26599999999996 42.667 324.26599999999996 C 56.849000000000004 324.26599999999996 68.267 375.61999999999995 68.267 418.133 C 68.267 432.247 56.781 443.733 42.667 443.733 z" stroke-linecap="round" />
</g>
		<g transform="matrix(0.48 0 0 0.48 53.43 24.66)"  >
<path style="stroke: none; stroke-width: 1; stroke-dasharray: none; stroke-linecap: butt; stroke-dashoffset: 0; stroke-linejoin: miter; stroke-miterlimit: 4; fill: rgb(0,0,0); fill-rule: nonzero; opacity: 1;" vector-effect="non-scaling-stroke"  transform=" translate(-366.93, -307.2)" d="M 375.467 435.2 L 375.467 179.2 C 375.467 174.48999999999998 371.644 170.667 366.93399999999997 170.667 C 362.22399999999993 170.667 358.40099999999995 174.49 358.40099999999995 179.2 L 358.40099999999995 435.2 C 358.40099999999995 439.90999999999997 362.22399999999993 443.733 366.93399999999997 443.733 C 371.644 443.733 375.467 439.91 375.467 435.2 z" stroke-linecap="round" />
</g>
		<g transform="matrix(0.48 0 0 0.48 20.55 -32.88)"  >
<path style="stroke: none; stroke-width: 1; stroke-dasharray: none; stroke-linecap: butt; stroke-dashoffset: 0; stroke-linejoin: miter; stroke-miterlimit: 4; fill: rgb(0,0,0); fill-rule: nonzero; opacity: 1;" vector-effect="non-scaling-stroke"  transform=" translate(-298.67, -187.73)" d="M 281.6 221.867 L 315.733 221.867 C 320.443 221.867 324.266 218.04399999999998 324.266 213.334 L 324.266 162.13400000000001 C 324.266 157.424 320.44300000000004 153.60100000000003 315.733 153.60100000000003 L 281.6 153.60100000000003 C 276.89000000000004 153.60100000000003 273.067 157.42400000000004 273.067 162.13400000000001 L 273.067 213.334 C 273.067 218.044 276.89 221.867 281.6 221.867 z M 290.133 170.667 L 307.2 170.667 L 307.2 204.8 L 290.133 204.8 L 290.133 170.667 z" stroke-linecap="round" />
</g>
		<g transform="matrix(0.48 0 0 0.48 -94.54 -6.17)"  >
<path style="stroke: none; stroke-width: 1; stroke-dasharray: none; stroke-linecap: butt; stroke-dashoffset: 0; stroke-linejoin: miter; stroke-miterlimit: 4; fill: rgb(0,0,0); fill-rule: nonzero; opacity: 1;" vector-effect="non-scaling-stroke"  transform=" translate(-59.73, -243.2)" d="M 8.533 298.667 C 13.242999999999999 298.667 17.066 294.844 17.066 290.13399999999996 L 17.066 221.86699999999996 L 110.933 221.86699999999996 C 115.643 221.86699999999996 119.46600000000001 218.04399999999995 119.46600000000001 213.33399999999997 C 119.46600000000001 208.62399999999997 115.64300000000001 204.801 110.933 204.801 L 17.067 204.801 L 17.067 196.268 C 17.067 191.558 13.244 187.735 8.534 187.735 C 3.8240000000000016 187.735 0 191.556 0 196.267 L 0 290.134 C 0 294.844 3.823 298.667 8.533 298.667 z" stroke-linecap="round" />
</g>
</g>
</g>
</svg>